<svg width="360" height="360" viewBox="0 0 360 360" fill="none" xmlns="http://www.w3.org/2000/svg">
<rect width="360" height="360" rx="70" fill="#0D2C2F"/>
<g clip-path="url(#paint0_diamond_5_186_clip_path)" data-figma-skip-parse="true"><g transform="matrix(0 0.183877 -0.232482 0 188.65 134.78)"><rect x="0" y="0" width="1061.69" height="682.417" fill="url(#paint0_diamond_5_186)" opacity="1" shape-rendering="crispEdges"/><rect x="0" y="0" width="1061.69" height="682.417" transform="scale(1 -1)" fill="url(#paint0_diamond_5_186)" opacity="1" shape-rendering="crispEdges"/><rect x="0" y="0" width="1061.69" height="682.417" transform="scale(-1 1)" fill="url(#paint0_diamond_5_186)" opacity="1" shape-rendering="crispEdges"/><rect x="0" y="0" width="1061.69" height="682.417" transform="scale(-1)" fill="url(#paint0_diamond_5_186)" opacity="1" shape-rendering="crispEdges"/></g></g><path d="M180 30C262.744 30 330 97.255 330 180C330 262.745 262.745 330 180 330C97.2552 330 30 262.744 30 180C30 97.2551 97.2552 30.0002 180 30ZM180 48.1885C107.348 48.1887 48.1875 107.348 48.1875 180C48.1875 252.651 107.348 311.812 180 311.812C252.652 311.812 311.812 252.652 311.812 180C311.812 107.348 252.651 48.1885 180 48.1885ZM248.21 196.752V236.775L194.445 147.664L177.157 176.596L182.254 181.226V209.771L166.364 194.727L148.876 223.37H215.231L227.124 242.658H113L151.374 179.586L114.299 142.649V114.006L162.367 161.841L194.445 107.448L248.21 196.752Z" data-figma-gradient-fill="{&#34;type&#34;:&#34;GRADIENT_DIAMOND&#34;,&#34;stops&#34;:[{&#34;color&#34;:{&#34;r&#34;:0.69019609689712524,&#34;g&#34;:0.77254903316497803,&#34;b&#34;:0.74901962280273438,&#34;a&#34;:1.0},&#34;position&#34;:0.0},{&#34;color&#34;:{&#34;r&#34;:0.69019609689712524,&#34;g&#34;:0.77254903316497803,&#34;b&#34;:0.74901962280273438,&#34;a&#34;:1.0},&#34;position&#34;:0.50},{&#34;color&#34;:{&#34;r&#34;:0.69019609689712524,&#34;g&#34;:0.77254903316497803,&#34;b&#34;:0.74901962280273438,&#34;a&#34;:1.0},&#34;position&#34;:1.0}],&#34;stopsVar&#34;:[{&#34;color&#34;:{&#34;r&#34;:0.69019609689712524,&#34;g&#34;:0.77254903316497803,&#34;b&#34;:0.74901962280273438,&#34;a&#34;:1.0},&#34;position&#34;:0.0},{&#34;color&#34;:{&#34;r&#34;:0.69019609689712524,&#34;g&#34;:0.77254903316497803,&#34;b&#34;:0.74901962280273438,&#34;a&#34;:1.0},&#34;position&#34;:0.50},{&#34;color&#34;:{&#34;r&#34;:0.69019609689712524,&#34;g&#34;:0.77254903316497803,&#34;b&#34;:0.74901962280273438,&#34;a&#34;:1.0},&#34;position&#34;:1.0}],&#34;transform&#34;:{&#34;m00&#34;:-7.2426201321029726e-13,&#34;m01&#34;:-464.96368408203125,&#34;m02&#34;:421.13146972656250,&#34;m10&#34;:367.75479125976562,&#34;m11&#34;:-9.9549762964251665e-13,&#34;m12&#34;:-49.097465515136719},&#34;opacity&#34;:1.0,&#34;blendMode&#34;:&#34;NORMAL&#34;,&#34;visible&#34;:true}"/>
<defs>
<clipPath id="paint0_diamond_5_186_clip_path"><path d="M180 30C262.744 30 330 97.255 330 180C330 262.745 262.745 330 180 330C97.2552 330 30 262.744 30 180C30 97.2551 97.2552 30.0002 180 30ZM180 48.1885C107.348 48.1887 48.1875 107.348 48.1875 180C48.1875 252.651 107.348 311.812 180 311.812C252.652 311.812 311.812 252.652 311.812 180C311.812 107.348 252.651 48.1885 180 48.1885ZM248.21 196.752V236.775L194.445 147.664L177.157 176.596L182.254 181.226V209.771L166.364 194.727L148.876 223.37H215.231L227.124 242.658H113L151.374 179.586L114.299 142.649V114.006L162.367 161.841L194.445 107.448L248.21 196.752Z"/></clipPath><linearGradient id="paint0_diamond_5_186" x1="0" y1="0" x2="500" y2="500" gradientUnits="userSpaceOnUse">
<stop stop-color="#B0C5BF"/>
<stop offset="0.5" stop-color="#B0C5BF"/>
<stop offset="1" stop-color="#B0C5BF"/>
</linearGradient>
</defs>
</svg>
